<svg width="48" height="48" viewBox="0 0 48 48" fill="none" xmlns="http://www.w3.org/2000/svg"><rect width="48" height="48" rx="8" fill="#f8761f"/><path d="M30.2 16.8c-1.1-.6-2.2-1-3.5-1.2V12c1.3-.5 2.1-1.7 2.1-3.1 0-1.9-1.5-3.4-3.4-3.4s-3.4 1.5-3.4 3.4c0 1.4.8 2.6 2.1 3.1v3.5c-.9.1-1.8.4-2.6.8l-8.9-6.4c.1-.3.2-.6.2-1 0-1.5-1.2-2.7-2.7-2.7s-2.7 1.2-2.7 2.7 1.2 2.7 2.7 2.7c.5 0 1-.1 1.4-.4l8.9 6.4c-.5.5-1 1.1-1.4 1.7-.8 1.3-1.3 2.7-1.3 4.3v.3c0 .9.2 1.8.5 2.6.3.8.7 1.5 1.2 2.1l-3.4 3.4c-.6-.2-1.2-.3-1.8-.3-1.5 0-2.7 1.2-2.7 2.7s1.2 2.7 2.7 2.7 2.7-1.2 2.7-2.7c0-.4-.1-.8-.2-1.1l3.4-3.4c.6.3 1.3.5 2 .7 1.1.3 2.3.5 3.5.5h.2c1.4 0 2.7-.3 3.9-.8 1.2-.5 2.2-1.2 3-2.1.8-1 1.3-2.2 1.3-3.5v-.1c0-1.6-.4-3.1-1.2-4.4-.8-1.3-1.9-2.3-3.2-3zm-4.3 7.4c-.9 1.1-2.1 1.7-3.3 1.7h-.2c-.7 0-1.4-.2-2.1-.6-.7-.4-1.3-.9-1.8-1.7-.5-.7-.8-1.5-.8-2.3v-.2c0-.8.2-1.6.5-2.3.4-.8 1-1.4 1.7-1.9.7-.5 1.5-.7 2.4-.7h.1c.8 0 1.5.2 2.2.5.7.3 1.3.8 1.7 1.6.4.7.8 1.4.8 2.2l.02.5c0 1.1-.4 2.1-1.2 3.2z" fill="white"/></svg>